<svg data-v-423bf9ae="" xmlns="http://www.w3.org/2000/svg" viewBox="0 0 591 181" class="iconLeft"><!----><!----><!----><g data-v-423bf9ae="" id="4314fd37-c73a-4c12-af05-ae2d297da15e" fill="black" transform="matrix(3.5481963655477116,0,0,3.5481963655477116,256.1929222680392,50.0708609521472)"><path d="M8.74 6.45L8.74 6.45L8.74 6.45Q8.74 7.35 8.34 8.13L8.34 8.13L8.34 8.13Q7.95 8.90 7.36 9.44L7.36 9.44L7.36 9.44Q6.78 9.98 5.98 10.43L5.98 10.43L5.98 10.43Q4.62 11.17 3.05 11.56L3.05 11.56L3.05 11.56Q2.90 12.82 2.90 13.71L2.90 13.71L2.90 13.71Q2.90 15.05 3.43 15.62L3.43 15.62L3.43 15.62Q3.00 16.13 2.46 16.13L2.46 16.13L2.46 16.13Q1.37 16.13 1.37 14.28L1.37 14.28L1.37 14.28Q1.37 13.51 1.90 10.04L1.90 10.04L1.90 10.04Q2.44 6.57 2.44 5.58L2.44 5.58L2.44 5.58Q2.44 4.59 2.23 3.93L2.23 3.93L2.23 3.93Q4.12 3.58 5.28 3.58L5.28 3.58L5.28 3.58Q8.74 3.58 8.74 6.45ZM7.27 6.75L7.27 6.75L7.27 6.75Q7.27 4.44 4.97 4.44L4.97 4.44L4.97 4.44Q4.52 4.44 4.02 4.52L4.02 4.52L4.02 4.52Q4.02 5.39 3.65 7.68L3.65 7.68L3.65 7.68Q3.28 9.97 3.18 10.61L3.18 10.61L3.18 10.61Q4.80 10.28 5.98 9.39L5.98 9.39L5.98 9.39Q6.58 8.93 6.92 8.25L6.92 8.25L6.92 8.25Q7.27 7.57 7.27 6.75ZM10.98 15.93L10.98 15.93L10.98 15.93Q10.50 16.13 10.05 16.13L10.05 16.13L10.05 16.13Q9.59 16.13 9.40 15.77L9.40 15.77L9.40 15.77Q9.21 15.41 9.21 14.63L9.21 14.63L9.21 14.63Q9.21 13.85 9.79 10.43L9.79 10.43L9.79 10.43Q10.75 4.59 10.07 3.22L10.07 3.22L10.07 3.22Q10.40 2.91 10.94 2.91L10.94 2.91L10.94 2.91Q11.48 2.91 11.72 3.25L11.72 3.25L11.72 3.25Q11.96 3.58 11.96 4.47L11.96 4.47L11.96 4.47Q11.96 5.36 11.49 8.05L11.49 8.05L11.49 8.05Q11.02 10.74 10.93 11.41L10.93 11.41L10.93 11.41Q12.42 7.85 13.48 6.93L13.48 6.93L13.48 6.93Q13.97 6.51 14.46 6.51L14.46 6.51L14.46 6.51Q16.09 6.51 16.09 8.93L16.09 8.93L16.09 8.93Q16.09 9.63 15.93 10.95L15.93 10.95L15.93 10.95Q15.76 12.26 15.76 12.95L15.76 12.95L15.76 12.95Q15.76 14.92 16.38 15.62L16.38 15.62L16.38 15.62Q15.89 16.13 15.40 16.13L15.40 16.13L15.40 16.13Q14.24 16.13 14.24 13.41L14.24 13.41L14.24 13.41Q14.24 12.40 14.47 10.87L14.47 10.87L14.47 10.87Q14.70 9.34 14.70 8.91L14.70 8.91L14.70 8.91Q14.70 8.48 14.53 8.24L14.53 8.24L14.53 8.24Q14.36 7.99 13.94 7.99L13.94 7.99L13.94 7.99Q13.38 7.99 12.60 9.28L12.60 9.28L12.60 9.28Q11.82 10.56 11.28 12.16L11.28 12.16L11.28 12.16Q10.74 13.76 10.74 14.67L10.74 14.67L10.74 14.67Q10.74 15.58 10.98 15.93ZM22.12 7.50L22.12 7.50L22.12 7.50Q21.46 7.50 20.98 8.00L20.98 8.00L20.98 8.00Q20.50 8.50 20.26 9.25L20.26 9.25L20.26 9.25Q19.81 10.65 19.81 12.09L19.81 12.09L19.81 12.09Q19.81 13.52 20.40 14.38L20.40 14.38L20.40 14.38Q20.99 15.23 22.04 15.23L22.04 15.23L22.04 15.23Q22.71 15.23 23.20 14.74L23.20 14.74L23.20 14.74Q23.69 14.24 23.93 13.48L23.93 13.48L23.93 13.48Q24.37 12.04 24.37 10.62L24.37 10.62L24.37 10.62Q24.37 9.20 23.78 8.35L23.78 8.35L23.78 8.35Q23.18 7.50 22.12 7.50ZM21.35 16.27L21.35 16.27L21.35 16.27Q19.89 16.27 19.10 15.18L19.10 15.18L19.10 15.18Q18.30 14.08 18.30 12.40L18.30 12.40L18.30 12.40Q18.30 11.38 18.62 10.34L18.62 10.34L18.62 10.34Q18.94 9.30 19.50 8.42L19.50 8.42L19.50 8.42Q20.06 7.55 20.94 7.00L20.94 7.00L20.94 7.00Q21.83 6.45 22.85 6.45L22.85 6.45L22.85 6.45Q24.30 6.45 25.09 7.55L25.09 7.55L25.09 7.55Q25.89 8.64 25.89 10.32L25.89 10.32L25.89 10.32Q25.89 12.04 25.10 13.58L25.10 13.58L25.10 13.58Q24.25 15.25 22.90 15.92L22.90 15.92L22.90 15.92Q22.18 16.27 21.35 16.27ZM29.36 7.21L29.36 7.21L29.39 6.57L29.39 6.57Q29.39 5.26 29.09 4.68L29.09 4.68L29.09 4.68Q29.23 4.55 29.52 4.45L29.52 4.45L29.52 4.45Q29.81 4.35 30.03 4.35L30.03 4.35L30.03 4.35Q30.52 4.35 30.76 4.69L30.76 4.69L30.76 4.69Q31.00 5.03 31.00 5.82L31.00 5.82L31.00 5.82Q31.00 6.13 30.83 7.21L30.83 7.21L30.83 7.21Q32.55 7.18 33.11 6.80L33.11 6.80L33.11 6.80Q33.00 7.71 32.48 8.02L32.48 8.02L32.48 8.02Q31.96 8.33 30.63 8.36L30.63 8.36L30.63 8.36Q29.99 12.32 29.99 14.31L29.99 14.31L29.99 14.31Q29.99 14.77 30.19 14.99L30.19 14.99L30.19 14.99Q30.39 15.22 30.72 15.22L30.72 15.22L30.72 15.22Q31.05 15.22 31.43 14.93L31.43 14.93L31.43 14.93Q31.81 14.64 32.03 14.21L32.03 14.21L32.03 14.21Q32.28 14.52 32.28 14.87L32.28 14.87L32.28 14.87Q32.28 15.41 31.75 15.83L31.75 15.83L31.75 15.83Q31.21 16.24 30.35 16.24L30.35 16.24L30.35 16.24Q29.50 16.24 29.00 15.79L29.00 15.79L29.00 15.79Q28.50 15.33 28.50 14.35L28.50 14.35L28.50 14.35Q28.50 13.47 28.83 11.25L28.83 11.25L28.83 11.25Q29.15 9.03 29.23 8.37L29.23 8.37L29.23 8.37Q27.99 8.37 27.38 8.75L27.38 8.75L27.38 8.75Q27.38 8.11 27.51 7.84L27.51 7.84L27.51 7.84Q27.64 7.57 27.85 7.46L27.85 7.46L27.85 7.46Q28.36 7.21 29.36 7.21ZM37.34 7.50L37.34 7.50L37.34 7.50Q36.68 7.50 36.20 8.00L36.20 8.00L36.20 8.00Q35.71 8.50 35.48 9.25L35.48 9.25L35.48 9.25Q35.03 10.65 35.03 12.09L35.03 12.09L35.03 12.09Q35.03 13.52 35.62 14.38L35.62 14.38L35.62 14.38Q36.20 15.23 37.25 15.23L37.25 15.23L37.25 15.23Q37.93 15.23 38.42 14.74L38.42 14.74L38.42 14.74Q38.91 14.24 39.14 13.48L39.14 13.48L39.14 13.48Q39.59 12.04 39.59 10.62L39.59 10.62L39.59 10.62Q39.59 9.20 39.00 8.35L39.00 8.35L39.00 8.35Q38.40 7.50 37.34 7.50ZM36.57 16.27L36.57 16.27L36.57 16.27Q35.11 16.27 34.31 15.18L34.31 15.18L34.31 15.18Q33.52 14.08 33.52 12.40L33.52 12.40L33.52 12.40Q33.52 11.38 33.84 10.34L33.84 10.34L33.84 10.34Q34.16 9.30 34.72 8.42L34.72 8.42L34.72 8.42Q35.28 7.55 36.16 7.00L36.16 7.00L36.16 7.00Q37.04 6.45 38.07 6.45L38.07 6.45L38.07 6.45Q39.52 6.45 40.31 7.55L40.31 7.55L40.31 7.55Q41.10 8.64 41.10 10.32L41.10 10.32L41.10 10.32Q41.10 12.04 40.32 13.58L40.32 13.58L40.32 13.58Q39.47 15.25 38.12 15.92L38.12 15.92L38.12 15.92Q37.39 16.27 36.57 16.27ZM49.98 13.92L49.98 13.92L49.98 13.92Q49.98 16.52 48.89 18.05L48.89 18.05L48.89 18.05Q47.80 19.59 45.96 19.59L45.96 19.59L45.96 19.59Q45.40 19.59 44.94 19.50L44.94 19.50L44.94 19.50Q44.48 19.40 44.09 19.10L44.09 19.10L44.09 19.10Q43.69 18.79 43.69 18.21L43.69 18.21L43.69 18.21Q43.69 17.64 44.20 17.16L44.20 17.16L44.20 17.16Q45.01 18.55 46.51 18.55L46.51 18.55L46.51 18.55Q47.26 18.55 47.60 18.13L47.60 18.13L47.60 18.13Q47.81 17.89 47.96 17.64L47.96 17.64L47.96 17.64Q48.10 17.39 48.21 16.88L48.21 16.88L48.21 16.88Q48.31 16.38 48.38 15.94L48.38 15.94L48.38 15.94Q48.44 15.50 48.48 14.70L48.48 14.70L48.48 14.70Q48.54 13.57 48.59 11.52L48.59 11.52L48.59 11.52Q47.87 13.57 46.86 14.90L46.86 14.90L46.86 14.90Q45.85 16.23 45.01 16.23L45.01 16.23L45.01 16.23Q44.17 16.23 43.59 15.35L43.59 15.35L43.59 15.35Q43.01 14.48 43.01 12.71L43.01 12.71L43.01 12.71Q43.01 10.46 44.02 8.54L44.02 8.54L44.02 8.54Q44.49 7.62 45.30 7.04L45.30 7.04L45.30 7.04Q46.12 6.45 47.21 6.45L47.21 6.45L47.21 6.45Q48.30 6.45 49.08 7.39L49.08 7.39L49.08 7.39Q49.20 6.94 49.37 6.77L49.37 6.77L49.37 6.77Q49.55 6.59 49.99 6.59L49.99 6.59L49.99 6.59Q50.44 6.59 50.82 6.89L50.82 6.89L50.82 6.89Q50.53 7.39 50.19 8.25L50.19 8.25L50.19 8.25Q49.98 10.00 49.98 13.92ZM47.17 7.42L47.17 7.42L47.17 7.42Q45.93 7.42 45.21 8.84L45.21 8.84L45.21 8.84Q44.48 10.26 44.48 12.36L44.48 12.36L44.48 12.36Q44.48 13.41 44.74 14.08L44.74 14.08L44.74 14.08Q45.01 14.74 45.53 14.74L45.53 14.74L45.53 14.74Q46.05 14.74 46.81 13.66L46.81 13.66L46.81 13.66Q47.57 12.57 48.20 11.00L48.20 11.00L48.20 11.00Q48.83 9.42 48.97 8.15L48.97 8.15L48.97 8.15Q48.01 7.42 47.17 7.42ZM53.98 16.13L53.98 16.13L53.98 16.13Q52.89 16.13 52.89 14.28L52.89 14.28L52.89 14.28Q52.89 13.51 53.19 11.68L53.19 11.68L53.19 11.68Q53.48 9.84 53.48 8.67L53.48 8.67L53.48 8.67Q53.48 7.49 53.19 6.93L53.19 6.93L53.19 6.93Q53.54 6.61 54.04 6.61L54.04 6.61L54.04 6.61Q55.06 6.61 55.06 7.67L55.06 7.67L55.06 7.67Q55.06 8.05 54.89 9.23L54.89 9.23L54.89 9.23Q54.71 10.40 54.66 10.84L54.66 10.84L54.66 10.84Q55.41 8.85 56.36 7.65L56.36 7.65L56.36 7.65Q57.30 6.45 57.92 6.45L57.92 6.45L57.92 6.45Q58.27 6.45 58.44 6.79L58.44 6.79L58.44 6.79Q58.62 7.13 58.62 7.48L58.62 7.48L58.62 7.48Q58.62 7.83 58.53 8.19L58.53 8.19L58.53 8.19Q58.32 8.15 58.14 8.15L58.14 8.15L58.14 8.15Q57.25 8.15 56.34 9.20L56.34 9.20L56.34 9.20Q55.44 10.25 54.93 11.51L54.93 11.51L54.93 11.51Q54.42 12.77 54.42 13.59L54.42 13.59L54.42 13.59Q54.42 15.05 54.95 15.62L54.95 15.62L54.95 15.62Q54.52 16.13 53.98 16.13ZM61.28 16.23L61.28 16.23L61.28 16.23Q60.33 16.23 59.77 15.29L59.77 15.29L59.77 15.29Q59.22 14.35 59.22 12.71L59.22 12.71L59.22 12.71Q59.22 10.08 60.40 8.27L60.40 8.27L60.40 8.27Q61.59 6.45 63.32 6.45L63.32 6.45L63.32 6.45Q64.51 6.45 65.30 7.39L65.30 7.39L65.30 7.39Q65.41 6.96 65.58 6.78L65.58 6.78L65.58 6.78Q65.76 6.59 66.13 6.59L66.13 6.59L66.13 6.59Q66.50 6.59 66.82 6.96L66.82 6.96L66.82 6.96Q66.57 7.63 66.39 9.21L66.39 9.21L66.39 9.21Q66.21 10.79 66.21 12.16L66.21 12.16L66.21 12.16Q66.21 13.52 66.35 14.27L66.35 14.27L66.35 14.27Q66.50 15.02 66.85 15.61L66.85 15.61L66.85 15.61Q66.44 16.13 65.90 16.13L65.90 16.13L65.90 16.13Q64.69 16.13 64.69 13.17L64.69 13.17L64.69 13.17Q64.69 12.70 64.81 11.51L64.81 11.51L64.81 11.51Q64.08 13.54 63.08 14.88L63.08 14.88L63.08 14.88Q62.08 16.23 61.28 16.23ZM63.38 7.42L63.38 7.42L63.38 7.42Q62.19 7.42 61.44 8.81L61.44 8.81L61.44 8.81Q60.69 10.19 60.69 12.36L60.69 12.36L60.69 12.36Q60.69 13.47 60.98 14.11L60.98 14.11L60.98 14.11Q61.26 14.74 61.76 14.74L61.76 14.74L61.76 14.74Q62.26 14.74 63.02 13.65L63.02 13.65L63.02 13.65Q63.78 12.56 64.41 10.98L64.41 10.98L64.41 10.98Q65.04 9.41 65.18 8.15L65.18 8.15L65.18 8.15Q64.23 7.42 63.38 7.42ZM69.64 8.81L69.64 8.81L69.64 8.81Q69.64 7.50 69.34 6.93L69.34 6.93L69.34 6.93Q69.48 6.79 69.76 6.70L69.76 6.70L69.76 6.70Q70.04 6.61 70.27 6.61L70.27 6.61L70.27 6.61Q70.76 6.61 70.99 6.94L70.99 6.94L70.99 6.94Q71.23 7.28 71.23 8.25L71.23 8.25L71.23 8.25Q71.23 9.21 70.83 11.41L70.83 11.41L70.83 11.41Q71.75 9.04 72.65 7.75L72.65 7.75L72.65 7.75Q73.56 6.45 74.31 6.45L74.31 6.45L74.31 6.45Q75.26 6.45 75.92 7.46L75.92 7.46L75.92 7.46Q76.58 8.46 76.58 10.46L76.58 10.46L76.58 10.46Q76.58 12.63 75.67 14.35L75.67 14.35L75.67 14.35Q75.24 15.19 74.49 15.71L74.49 15.71L74.49 15.71Q73.74 16.23 72.80 16.23L72.80 16.23L72.80 16.23Q72.21 16.23 71.53 16.01L71.53 16.01L71.53 16.01Q70.85 15.79 70.45 15.46L70.45 15.46L70.45 15.46Q70.38 16.25 70.38 16.88L70.38 16.88L70.38 16.88Q70.38 18.65 71.04 19.32L71.04 19.32L71.04 19.32Q70.62 19.82 70.08 19.82L70.08 19.82L70.08 19.82Q68.89 19.82 68.89 17.68L68.89 17.68L68.89 17.68Q68.89 17.09 69.27 14.05L69.27 14.05L69.27 14.05Q69.64 11.00 69.64 8.81ZM73.93 7.94L73.93 7.94L73.93 7.94Q73.60 7.94 73.11 8.49L73.11 8.49L73.11 8.49Q72.62 9.04 72.12 9.94L72.12 9.94L72.12 9.94Q71.62 10.84 71.19 12.13L71.19 12.13L71.19 12.13Q70.76 13.43 70.55 14.76L70.55 14.76L70.55 14.76Q71.44 15.27 72.63 15.27L72.63 15.27L72.63 15.27Q73.82 15.27 74.47 14.04L74.47 14.04L74.47 14.04Q75.12 12.80 75.12 10.89L75.12 10.89L75.12 10.89Q75.12 9.62 74.82 8.78L74.82 8.78L74.82 8.78Q74.52 7.94 73.93 7.94ZM80.46 15.93L80.46 15.93L80.46 15.93Q79.98 16.13 79.53 16.13L79.53 16.13L79.53 16.13Q79.07 16.13 78.88 15.77L78.88 15.77L78.88 15.77Q78.69 15.41 78.69 14.63L78.69 14.63L78.69 14.63Q78.69 13.85 79.27 10.43L79.27 10.43L79.27 10.43Q80.23 4.59 79.55 3.22L79.55 3.22L79.55 3.22Q79.88 2.91 80.42 2.91L80.42 2.91L80.42 2.91Q80.96 2.91 81.20 3.25L81.20 3.25L81.20 3.25Q81.44 3.58 81.44 4.47L81.44 4.47L81.44 4.47Q81.44 5.36 80.97 8.05L80.97 8.05L80.97 8.05Q80.50 10.74 80.42 11.41L80.42 11.41L80.42 11.41Q81.90 7.85 82.96 6.93L82.96 6.93L82.96 6.93Q83.45 6.51 83.94 6.51L83.94 6.51L83.94 6.51Q85.57 6.51 85.57 8.93L85.57 8.93L85.57 8.93Q85.57 9.63 85.41 10.95L85.41 10.95L85.41 10.95Q85.25 12.26 85.25 12.95L85.25 12.95L85.25 12.95Q85.25 14.92 85.86 15.62L85.86 15.62L85.86 15.62Q85.37 16.13 84.88 16.13L84.88 16.13L84.88 16.13Q83.72 16.13 83.72 13.41L83.72 13.41L83.72 13.41Q83.72 12.40 83.95 10.87L83.95 10.87L83.95 10.87Q84.18 9.34 84.18 8.91L84.18 8.91L84.18 8.91Q84.18 8.48 84.01 8.24L84.01 8.24L84.01 8.24Q83.85 7.99 83.43 7.99L83.43 7.99L83.43 7.99Q82.87 7.99 82.08 9.28L82.08 9.28L82.08 9.28Q81.30 10.56 80.76 12.16L80.76 12.16L80.76 12.16Q80.22 13.76 80.22 14.67L80.22 14.67L80.22 14.67Q80.22 15.58 80.46 15.93ZM92.72 7.88L92.72 7.88L92.72 7.88Q92.72 7.48 92.57 7.21L92.57 7.21L92.57 7.21Q92.89 6.69 93.56 6.69L93.56 6.69L93.56 6.69Q94.21 6.69 94.21 7.41L94.21 7.41L94.21 7.41Q94.21 8.11 93.63 10.25L93.63 10.25L93.63 10.25Q93.06 12.39 92.46 13.88L92.46 13.88L92.46 13.88Q91.87 15.37 91.17 16.65L91.17 16.65L91.17 16.65Q90.48 17.93 89.54 18.76L89.54 18.76L89.54 18.76Q88.59 19.59 87.60 19.59L87.60 19.59L87.60 19.59Q85.67 19.59 85.67 18.28L85.67 18.28L85.67 18.28Q85.67 17.68 86.11 17.16L86.11 17.16L86.11 17.16Q86.49 18.41 87.78 18.41L87.78 18.41L87.78 18.41Q89.32 18.41 90.62 15.72L90.62 15.72L90.62 15.72Q90.20 15.72 90.02 15.57L90.02 15.57L90.02 15.57Q89.84 15.41 89.75 15.11L89.75 15.11L89.75 15.11Q88.69 10.63 88.07 9.11L88.07 9.11L88.07 9.11Q87.44 7.60 86.86 7.57L86.86 7.57L86.86 7.57Q87.01 7.10 87.35 6.87L87.35 6.87L87.35 6.87Q87.68 6.65 88.00 6.65L88.00 6.65L88.00 6.65Q88.86 6.65 89.43 8.09L89.43 8.09L89.43 8.09Q89.81 9.07 91.07 14.71L91.07 14.71L91.07 14.71Q91.81 12.87 92.27 10.92L92.27 10.92L92.27 10.92Q92.72 8.97 92.72 7.88Z"></path></g><!----><g data-v-423bf9ae="" id="e8be96a1-778c-45d0-8b16-46d0ee32f7d9" transform="matrix(1.417322285970052,0,0,1.417322285970052,0.4730309124453953,0.6038891961681685)" stroke="none" fill="black"><path clip-rule="evenodd" d="M14.173 14.173h8.504C28.346 14.173 28.346 0 34.016 0H65.196c5.669 0 5.669 14.173 11.338 14.173h53.858a5.67 5.67 0 0 1 5.669-5.669h5.67a5.67 5.67 0 0 1 5.669 5.669h8.504c7.826 0 14.173 6.347 14.173 14.173v85.039c0 7.827-6.347 14.174-14.173 14.174H14.173C6.347 127.56 0 121.213 0 113.386V28.347c0-7.827 6.347-14.174 14.173-14.174zm99.213 14.174c-23.479 0-42.52 19.041-42.52 42.52 0 23.479 19.04 42.52 42.52 42.52 23.479 0 42.52-19.04 42.52-42.52-.001-23.48-19.042-42.52-42.52-42.52zM34.016 42.52h17.008a5.67 5.67 0 0 0 5.669-5.669v-2.834a5.67 5.67 0 0 0-5.669-5.669H34.016a5.67 5.67 0 0 0-5.669 5.669v2.834a5.669 5.669 0 0 0 5.669 5.669z"></path><path clip-rule="evenodd" d="M113.386 39.685c-17.218 0-31.181 13.963-31.181 31.181s13.963 31.182 31.181 31.182 31.181-13.964 31.181-31.182-13.963-31.181-31.181-31.181z"></path></g><!----></svg>